<?xml version="1.0" standalone="no"?>
<!DOCTYPE svg PUBLIC "-//W3C//DTD SVG 20010904//EN"
 "http://www.w3.org/TR/2001/REC-SVG-20010904/DTD/svg10.dtd">
<svg version="1.0" xmlns="http://www.w3.org/2000/svg"
 width="200.000000pt" height="200.000000pt" viewBox="0 0 200.000000 200.000000"
 preserveAspectRatio="xMidYMid meet">

<g transform="translate(0.000000,200.000000) scale(0.100000,-0.100000)"
fill="#000000" stroke="none">
<path d="M980 1977 c-32 -11 -51 -35 -64 -79 -4 -15 -10 -16 -33 -7 -79 30
-228 -50 -181 -97 8 -8 42 -20 76 -26 34 -6 62 -14 62 -18 0 -3 -19 -15 -43
-27 -41 -20 -44 -20 -54 -4 -22 35 -75 51 -145 44 -39 -3 -86 -1 -116 7 -67
16 -104 7 -126 -31 -16 -27 -16 -32 -2 -54 21 -31 75 -41 146 -27 31 7 66 12
78 12 28 0 102 -66 102 -91 0 -10 5 -21 10 -24 6 -3 10 -22 10 -42 l0 -36 -17
24 c-10 13 -23 33 -29 44 -6 11 -30 30 -52 43 -41 23 -43 23 -87 7 -24 -10
-52 -29 -61 -43 -16 -24 -45 -124 -65 -219 -20 -102 -63 -226 -109 -318 -49
-98 -50 -103 -44 -163 4 -35 11 -65 15 -68 12 -7 11 -81 -1 -104 -5 -10 -41
-30 -80 -46 -64 -25 -71 -30 -86 -69 -23 -60 -17 -76 36 -91 88 -26 121 -14
139 51 8 30 29 56 83 105 40 36 70 58 66 50 -3 -8 -11 -33 -18 -55 -7 -22 -28
-76 -46 -120 -18 -44 -36 -105 -40 -135 -9 -72 3 -60 17 16 6 32 21 82 33 109
13 28 33 81 46 118 23 65 23 72 12 175 -17 155 -15 208 13 340 37 171 112 312
166 312 20 0 24 -10 10 -25 -5 -6 -19 -41 -31 -79 -17 -51 -25 -108 -31 -220
-25 -451 -29 -472 -81 -557 -30 -48 -32 -58 -39 -182 -7 -127 -8 -133 -35
-155 -23 -20 -29 -22 -41 -9 -8 8 -21 32 -28 53 -10 27 -14 32 -15 17 0 -12 4
-33 10 -47 6 -18 5 -33 -6 -56 -26 -52 -12 -66 92 -89 77 -18 100 -5 119 66
15 54 56 145 77 168 6 6 12 5 18 -5 33 -57 181 -253 205 -272 31 -24 134 -41
205 -34 102 11 128 23 203 99 69 70 72 71 121 72 48 0 50 1 57 32 7 34 25 63
40 63 5 0 9 -21 9 -47 0 -65 40 -150 74 -159 37 -9 52 0 81 46 37 58 38 85 11
175 -23 79 -23 80 -5 117 21 41 35 53 44 38 4 -6 27 -20 52 -32 l44 -21 72 23
c108 35 123 45 141 90 19 49 17 54 -34 80 -55 28 -77 25 -121 -15 -45 -40 -61
-43 -90 -14 -17 17 -20 28 -14 57 3 21 12 46 20 57 15 24 42 113 51 170 8 53
19 31 32 -62 10 -68 43 -139 61 -131 4 2 24 22 44 44 44 49 60 122 35 152 -18
20 -101 194 -148 310 -22 54 -51 103 -82 139 -27 30 -48 58 -48 62 0 5 11 12
24 15 29 7 52 61 35 82 -16 19 -76 29 -93 15 -7 -6 -20 -9 -27 -6 -16 7 -60
74 -82 125 -19 46 -74 97 -112 105 l-30 6 30 -17 c48 -26 85 -66 105 -111 25
-56 79 -123 100 -123 9 0 21 5 26 10 6 6 25 7 42 4 25 -5 32 -12 32 -30 0 -35
-26 -54 -76 -54 -65 0 -100 23 -144 93 -75 119 -74 119 -141 111 -32 -4 -59
-4 -59 0 0 19 48 96 65 105 18 9 18 10 2 10 -16 1 -18 7 -12 41 9 52 -21 103
-77 131 l-40 21 -30 -29 c-29 -28 -30 -28 -24 -113 l7 -85 -37 -39 c-39 -41
-54 -37 -54 15 0 14 -12 44 -26 65 -18 26 -22 40 -14 42 7 3 26 17 44 32 29
26 31 33 34 110 3 62 1 85 -9 91 -20 12 -108 10 -149 -4z m148 -67 c3 -89 -13
-113 -121 -173 -110 -62 -159 -124 -161 -202 l0 -50 -44 0 c-38 1 -49 6 -73
36 -33 39 -46 91 -31 123 6 13 43 38 94 63 47 23 91 49 98 58 8 9 23 54 35 98
19 75 23 83 55 100 24 12 53 17 90 15 l55 -3 3 -65z m-231 -43 c14 -13 1 -81
-17 -92 -19 -12 -141 8 -163 26 l-22 19 25 20 c57 45 146 59 177 27z m383 -12
c43 -22 60 -53 60 -109 0 -47 -36 -141 -66 -173 -13 -13 -28 -98 -20 -111 6
-10 -146 -2 -157 8 -20 18 7 79 60 140 51 59 55 66 49 102 -3 21 -9 55 -12 77
-5 32 -2 42 17 60 27 25 31 25 69 6z m-690 -109 c110 -2 109 -2 134 -21 18
-13 17 -15 -13 -45 -17 -17 -31 -39 -31 -48 0 -12 -7 -9 -28 11 -42 40 -83 49
-138 30 -100 -34 -194 15 -137 72 13 13 27 15 67 10 28 -4 94 -8 146 -9z m496
-103 c9 -32 13 -66 9 -81 -4 -15 -9 -44 -12 -64 -3 -21 -11 -38 -17 -38 -18 0
-52 74 -66 145 -7 33 -16 67 -21 77 -7 12 -1 21 24 37 l32 21 18 -21 c9 -12
24 -46 33 -76z m-119 35 c5 -7 15 -43 21 -79 7 -37 19 -80 27 -95 8 -15 13
-29 12 -29 -1 -1 -39 1 -84 3 l-83 4 0 53 c0 47 5 59 40 104 43 54 52 59 67
39z m-345 -115 c11 -10 28 -34 38 -54 l19 -35 -33 -12 c-18 -7 -44 -12 -57
-12 -36 0 -80 -52 -122 -140 -41 -90 -85 -276 -86 -369 -1 -53 -32 -112 -73
-135 -16 -10 -31 -16 -32 -14 -40 46 -34 118 17 219 51 101 77 178 131 404 28
117 39 139 76 158 41 21 93 17 122 -10z m808 -10 c12 -16 39 -56 60 -90 39
-62 79 -93 120 -93 21 0 78 -52 125 -114 13 -17 41 -74 63 -126 22 -52 63
-143 91 -201 63 -131 66 -167 17 -221 -19 -21 -36 -38 -39 -38 -17 0 -47 73
-47 113 0 48 -34 172 -50 182 -5 3 -35 52 -66 108 -59 106 -110 169 -155 192
-20 11 -28 25 -33 56 -4 22 -13 54 -21 70 -8 15 -15 38 -15 49 0 12 -23 44
-54 75 -29 30 -51 56 -48 59 12 13 32 5 52 -21z m-64 -5 c24 -12 44 -24 44
-28 0 -3 10 -16 21 -29 24 -25 56 -104 70 -168 10 -51 56 -187 75 -225 8 -15
21 -54 28 -85 l14 -58 1 63 c1 34 -8 94 -19 134 l-20 71 29 -27 c15 -15 34
-39 42 -54 8 -15 38 -70 68 -122 l54 -95 -16 -98 c-9 -54 -26 -114 -36 -135
-11 -20 -23 -46 -26 -56 -5 -16 -11 -11 -36 30 -25 39 -29 52 -20 66 15 24 13
93 -5 153 l-14 50 5 -50 c3 -27 7 -68 10 -90 4 -31 1 -45 -14 -63 -11 -12 -26
-20 -34 -16 -16 6 -42 105 -51 197 -9 81 -38 181 -73 252 -26 52 -53 127 -81
225 -5 18 -19 28 -57 39 -28 9 -53 20 -58 26 -9 12 2 85 15 103 15 17 35 15
84 -10z m-631 -58 c3 -5 1 -10 -4 -10 -6 0 -11 5 -11 10 0 6 2 10 4 10 3 0 8
-4 11 -10z m380 -40 c137 -11 235 -33 252 -56 7 -10 13 -28 13 -41 0 -23 37
-128 70 -198 16 -36 18 -62 15 -265 -2 -184 -6 -244 -24 -328 -12 -57 -19
-108 -15 -114 4 -7 3 -8 -4 -4 -7 4 -12 1 -12 -7 0 -21 -85 -183 -121 -230
-113 -147 -175 -182 -319 -181 -118 1 -142 14 -226 127 -37 51 -80 109 -96
130 -20 25 -43 83 -70 175 -39 132 -41 143 -42 287 -1 193 19 476 39 556 14
53 47 132 61 148 18 20 238 20 479 1z m469 -289 c9 -35 15 -66 12 -68 -5 -5
-56 128 -56 147 0 34 29 -18 44 -79z m-69 -207 c9 -49 20 -113 25 -142 5 -29
7 -108 3 -175 -6 -118 -5 -127 26 -232 18 -61 37 -122 42 -137 29 -74 -12
-178 -71 -178 -25 0 -33 7 -53 48 -21 41 -25 66 -30 199 -4 107 -1 198 11 305
9 84 15 218 14 298 -1 158 6 161 33 14z m-1121 -170 l7 -80 -80 -80 c-62 -61
-81 -87 -81 -107 0 -41 -36 -54 -97 -35 -38 12 -49 20 -51 40 -6 50 13 76 73
94 77 25 101 49 110 112 5 40 11 53 28 58 25 8 37 19 62 57 10 15 19 26 20 25
1 -2 6 -39 9 -84z m1240 -108 c10 -11 31 -46 47 -77 41 -82 76 -90 139 -33
l40 37 46 -18 c54 -20 60 -32 41 -77 -13 -30 -24 -38 -90 -61 -41 -15 -89 -27
-105 -27 -31 0 -107 49 -123 80 -5 8 -22 39 -39 68 -21 37 -30 66 -30 98 0 43
1 44 28 38 15 -3 35 -16 46 -28z m-1099 -112 c4 -48 5 -111 2 -141 -7 -65 -46
-137 -86 -158 l-29 -15 4 83 c3 45 6 98 8 117 4 38 40 125 55 135 5 3 12 19
16 35 12 53 23 32 30 -56z m1070 -47 c26 -49 25 -64 -8 -105 -15 -18 -37 56
-37 123 0 56 7 53 45 -18z m-1021 -129 c5 -30 1 -45 -28 -94 -19 -31 -40 -80
-47 -108 -18 -78 -25 -86 -68 -86 -40 0 -127 26 -136 41 -11 17 25 57 46 52
12 -4 29 3 43 16 13 13 39 30 57 39 49 25 90 97 96 172 6 59 6 61 18 34 6 -16
15 -45 19 -66z m865 -41 c1 -31 -5 -45 -29 -67 -18 -17 -30 -38 -30 -53 0 -29
-19 -39 -60 -30 -27 5 -29 8 -17 22 8 9 29 43 47 76 68 124 73 130 81 109 4
-10 8 -36 8 -57z"/>
<path d="M610 951 c-23 -20 -23 -21 -3 -11 28 13 141 17 208 8 40 -6 45 -6 25
3 -14 6 -65 13 -115 16 -82 5 -92 3 -115 -16z"/>
<path d="M1147 934 c-3 -5 27 -9 66 -9 40 0 95 -4 122 -8 42 -7 47 -6 30 5
-23 14 -210 24 -218 12z"/>
<path d="M700 880 c-25 -20 -25 -20 -5 -33 46 -28 109 -34 162 -15 40 14 38
25 -7 50 -46 24 -118 23 -150 -2z m135 -7 c24 -12 31 -19 23 -25 -18 -11 -102
-10 -134 2 -26 10 -26 11 -8 25 26 19 76 19 119 -2z"/>
<path d="M930 854 c0 -63 -32 -208 -51 -229 -10 -12 -24 -36 -30 -54 -10 -29
-9 -35 12 -54 21 -20 59 -31 59 -17 0 12 -24 30 -42 30 -26 0 -23 48 4 77 12
13 28 45 35 71 14 55 29 212 19 212 -3 0 -6 -16 -6 -36z"/>
<path d="M1175 883 c-11 -2 -31 -12 -45 -23 l-25 -19 30 -12 c17 -7 60 -13 97
-13 57 -1 71 2 90 21 l22 22 -37 16 c-34 14 -87 17 -132 8z m106 -15 c30 -9
36 -14 28 -24 -17 -21 -76 -28 -124 -14 -25 7 -45 16 -45 20 0 8 59 27 89 29
7 1 31 -4 52 -11z"/>
<path d="M1076 828 c-11 -43 -6 -155 10 -200 21 -64 16 -112 -13 -116 -28 -4
-30 -22 -3 -22 42 0 50 57 24 167 -15 64 -14 135 1 176 4 9 3 17 -3 17 -5 0
-12 -10 -16 -22z"/>
<path d="M848 344 c-23 -20 -44 -40 -46 -44 -6 -15 69 -78 100 -84 17 -3 59
-6 93 -6 l63 0 46 51 c25 28 46 55 46 60 0 4 -17 20 -37 34 -34 22 -48 25
-129 25 -91 0 -93 0 -136 -36z m230 11 c25 -13 19 -14 -85 -15 -61 0 -120 -3
-130 -6 -10 -3 -6 2 9 12 35 25 167 31 206 9z m-51 -41 c-33 -11 -48 -12 -95
0 l-57 14 95 0 c92 0 94 -1 57 -14z m103 -1 c0 -4 -19 -27 -42 -50 -41 -42
-44 -43 -106 -43 -38 0 -75 6 -95 16 -36 18 -67 43 -67 54 0 13 59 17 113 9
36 -6 68 -4 102 5 58 16 95 19 95 9z"/>
</g>
</svg>
